<?xml version="1.0" encoding="UTF-8" standalone="no"?>
<svg
   id="Calque_2"
   data-name="Calque 2"
   viewBox="0 0 192 65.068169"
   version="1.1"
   sodipodi:docname="logo.svg"
   width="192"
   height="65.068169"
   inkscape:version="1.1.2 (0a00cf5339, 2022-02-04)"
   xmlns:inkscape="http://www.inkscape.org/namespaces/inkscape"
   xmlns:sodipodi="http://sodipodi.sourceforge.net/DTD/sodipodi-0.dtd"
   xmlns="http://www.w3.org/2000/svg"
   xmlns:svg="http://www.w3.org/2000/svg">
  <sodipodi:namedview
     id="namedview10"
     pagecolor="#ffffff"
     bordercolor="#666666"
     borderopacity="1.0"
     inkscape:pageshadow="2"
     inkscape:pageopacity="0.0"
     inkscape:pagecheckerboard="0"
     showgrid="false"
     fit-margin-top="0"
     fit-margin-left="0"
     fit-margin-right="0"
     fit-margin-bottom="0"
     inkscape:zoom="1.7796508"
     inkscape:cx="55.347937"
     inkscape:cy="32.590663"
     inkscape:window-width="1920"
     inkscape:window-height="1020"
     inkscape:window-x="0"
     inkscape:window-y="0"
     inkscape:window-maximized="1"
     inkscape:current-layer="UNIL-LOGOTYPE" />
  <defs
     id="defs4">
    <style
       id="style2">
      .cls-1 {
        fill: #06f;
      }
    </style>
  </defs>
  <g
     id="UNIL-LOGOTYPE"
     transform="scale(0.29105462)">
    <path
       class="cls-1"
       d="m 632.53,223.56 c 7.85,0 14.34,-2.52 19.46,-7.56 5.12,-5.03 7.68,-11.48 7.68,-19.33 0,-7.85 -2.56,-14.3 -7.68,-19.33 -5.12,-5.03 -11.61,-7.56 -19.46,-7.56 -7.85,0 -14.08,2.52 -19.21,7.56 -5.12,5.04 -7.68,11.48 -7.68,19.33 0,7.85 2.56,14.3 7.68,19.33 5.12,5.03 11.52,7.56 19.21,7.56 M 527.28,50.19 v 169.78 h 47.89 V 0 h -59.92 c -8.03,0 -12.04,3.93 -12.04,11.78 v 9.73 c 0,7 3.24,11.61 9.73,13.83 l 4.35,1.28 c 6.66,2.05 9.99,6.57 9.99,13.57 m -98.08,-2.3 h 47.89 V 0 H 429.2 Z m 0,72.47 v 99.62 h 47.89 V 69.91 h -59.92 c -8.03,0 -12.04,4.01 -12.04,12.04 v 9.73 c 0,7 3.24,11.52 9.73,13.57 l 4.61,1.28 c 6.49,2.39 9.73,7 9.73,13.83 m -190.02,0 v 99.62 h 47.89 v -90.14 c 0,-7.34 1.96,-13.14 5.89,-17.41 3.92,-4.26 9.3,-6.4 16.13,-6.4 6.83,0 12.2,2.14 16.13,6.4 3.93,4.27 5.89,10.07 5.89,17.41 v 90.14 H 379 v -96.8 c 0,-17.58 -4.65,-31.54 -13.96,-41.87 -9.31,-10.33 -21.81,-15.49 -37.52,-15.49 -10.24,0 -19.12,2.26 -26.63,6.79 -7.51,4.52 -13.49,11.06 -17.93,19.59 V 69.92 h -55.83 c -8.03,0 -12.04,4.01 -12.04,12.04 v 9.73 c 0,7 3.24,11.52 9.73,13.57 l 4.35,1.28 c 6.66,2.22 9.99,6.83 9.99,13.83 M 106.02,223.56 c 16.73,0 31.28,-3.03 43.66,-9.09 12.38,-6.06 21.85,-14.73 28.43,-25.99 6.57,-11.27 9.86,-24.58 9.86,-39.95 V 19.97 h -47.89 v 125.99 c 0,10.76 -3.03,19.21 -9.09,25.35 -6.06,6.15 -14.3,9.22 -24.71,9.22 -10.41,0 -18.65,-3.07 -24.71,-9.22 -6.06,-6.15 -9.09,-14.6 -9.09,-25.35 V 19.97 H 12.04 C 4.01,19.97 0,23.98 0,32.01 v 9.73 c 0,6.66 3.24,11.18 9.73,13.57 l 4.35,1.28 c 6.66,2.05 9.99,6.57 9.99,13.57 v 78.36 c 0,15.37 3.28,28.68 9.86,39.95 6.57,11.27 16.04,19.94 28.43,25.99 12.38,6.06 26.93,9.09 43.66,9.09"
       id="path6"
       style="fill:#008ccc;fill-opacity:1" />
  </g>
</svg>
